<?xml version="1.0" encoding="utf-8"?>
<!-- Generator: Adobe Illustrator 19.0.0, SVG Export Plug-In . SVG Version: 6.00 Build 0)  -->
<svg version="1.1" id="Livello_1" xmlns="http://www.w3.org/2000/svg" xmlns:xlink="http://www.w3.org/1999/xlink" x="0px" y="0px"
	 viewBox="0 0 29.4 16.6" style="enable-background:new 0 0 29.4 16.6;" xml:space="preserve">
<style type="text/css">
	.st0{fill:#F6A122;stroke:#F6A122;stroke-width:0;stroke-miterlimit:10;}
</style>
<g>
	<g>
		<path class="st0" d="M8.3,0.5C4,0.5,0.5,4,0.5,8.3v6.8c0,0.6,0.5,1,1,1c0.6,0,1-0.5,1-1V8.3c0-3.2,2.6-5.8,5.8-5.8
			c1.5,0,3,0.6,4.1,1.7c0.2,0.2,0.4,0.3,0.7,0.3c0.6,0,1-0.5,1-1c0-0.3-0.1-0.5-0.3-0.7C12.4,1.3,10.4,0.5,8.3,0.5z"/>
		<path class="st0" d="M28.9,3.5c0-0.3-0.1-0.5-0.3-0.7c-1.5-1.5-3.4-2.3-5.5-2.3c-4.3,0-7.8,3.5-7.8,7.8c0,4.3,3.5,7.8,7.8,7.8h4.7
			c0.6,0,1-0.5,1-1c0-0.6-0.5-1-1-1H23c-1.2,0-2.3-0.4-3.3-1l8.8-8.8C28.7,4,28.9,3.8,28.9,3.5z M18.3,11.6c-0.7-1-1-2.1-1-3.3
			c0-3.2,2.6-5.8,5.8-5.8c1.2,0,2.3,0.4,3.3,1L18.3,11.6z"/>
	</g>
</g>
</svg>
